<svg xmlns="http://www.w3.org/2000/svg" viewBox="0 0 23 23"><path d="M1 1h7v7h-7zM11 1h2v1h-2zM15 1h7v7h-7zM2 2v5h5v-5zM10 2h1v2h-1v1h1v1h-1v2h1v2h-1v-1h-1v-6h1zM16 2v5h5v-5zM3 3h3v3h-3zM12 3h1v1h-1zM17 3h3v3h-3zM13 4h1v7h-1v-2h-1v-1h1v-2h-1v-1h1zM11 6h1v2h-1zM1 9h1v1h-1zM3 9h5v1h-1v1h-1v1h-1v-1h-1v2h-3v-2h1v1h1zM15 9h5v2h-1v-1h-1v1h-3zM8 10h1v1h1v1h-3v-1h1zM11 10h1v1h1v1h-2zM14 11h1v2h1v1h-1v1h-1v1h1v3h1v1h-2v-1h-1v-2h-2v-2h1v1h1v-1h-1v-1h-1v-1h2v1h1zM18 11h1v1h1v1h-2zM20 11h1v1h-1zM6 12h1v1h1v1h-4v-1h2zM16 12h1v1h-1zM17 13h1v1h-1zM9 14h1v1h-1zM16 14h1v1h-1zM20 14h1v2h-1zM1 15h7v7h-7zM18 15h1v1h1v2h-3v-1h-1v-1h2zM2 16v5h5v-5zM9 16h1v2h1v1h-1v1h-1zM21 16h1v2h-1zM3 17h3v3h-3zM16 18h1v1h-1zM11 19h2v1h-2zM19 20h1v1h-1zM9 21h1v1h-1zM11 21h2v1h-2zM16 21h3v1h-3zM20 21h1v1h-1z"/></svg>